<!-- icon666.com - MILLIONS vector ICONS FREE --><svg viewBox="0 0 60 52" xmlns="http://www.w3.org/2000/svg"><g id="020---Love-Coding" transform="translate(0 -1)"><path id="Shape" d="m56.011 5.943c-2.7786018-3.09405021-6.7238108-4.88610754-10.882-4.943-4.0965366-.06080908-8.0286219 1.60948296-10.829 4.6l-4.3 4.351-4.286-4.346c-2.7727519-2.93720016-6.6327807-4.60281415-10.672-4.605h-.171c-4.1581892.05689246-8.10339822 1.84894979-10.882 4.943-5.51 6.008-5.229 15.794.625 21.815l23.958 24.642c.3744475.3863244.8894875.604386 1.4275.604386s1.0530525-.2180616 1.4275-.604386l23.959-24.642c5.854-6.021 6.135-15.807.625-21.815zm-2.059 20.42-23.945 24.637-23.959-24.637c-5.128-5.273-5.391-13.827-.584-19.063 2.40617576-2.68905479 5.8279491-4.24836229 9.436-4.3h.146c3.4988682.00525382 6.8409253 1.45218838 9.239 4l5.008 5.077c.3982297.3809571 1.0257703.3809571 1.424 0l5.012-5.087c2.4282924-2.58486628 5.8296858-4.03234493 9.376-3.99 3.6063019.05302821 7.0259975 1.61221504 9.431 4.3 4.807 5.236 4.544 13.79-.584 19.063z"></path><path id="Path" d="m24.293 23.707c.3923789.3789722 1.0160848.3735524 1.4018186-.0121814s.3911536-1.0094397.0121814-1.4018186l-2.293-2.293 2.293-2.293c.3789722-.3923789.3735524-1.0160848-.0121814-1.4018186s-1.0094397-.3911536-1.4018186-.0121814l-3 3c-.3903819.3904999-.3903819 1.0235001 0 1.414z"></path><path id="Path" d="m34.293 23.707c.3904999.3903819 1.0235001.3903819 1.414 0l3-3c.3903819-.3904999.3903819-1.0235001 0-1.414l-3-3c-.3923789-.3789722-1.0160848-.3735524-1.4018186.0121814s-.3911536 1.0094397-.0121814 1.4018186l2.293 2.293-2.293 2.293c-.3903819.3904999-.3903819 1.0235001 0 1.414z"></path><path id="Path" d="m28.758 24.97c.0791715.0196698.1604221.0297422.242.03.4585975-.0005854.8580197-.3130332.969-.758l2-8c.1192665-.5300108-.2064318-1.0582917-.7335393-1.1897969-.5271076-.1315052-1.0627873.1818752-1.2064607.7057969l-2 8c-.0640764.257394-.0232656.5297006.1134524.7570014.1367181.2273008.3581412.3909717.6155476.4549986z"></path><path id="Path" d="m21 27h-1c-.5522847 0-1 .4477153-1 1s.4477153 1 1 1h1c.5522847 0 1-.4477153 1-1s-.4477153-1-1-1z"></path><path id="Path" d="m40 27h-15c-.5522847 0-1 .4477153-1 1s.4477153 1 1 1h15c.5522847 0 1-.4477153 1-1s-.4477153-1-1-1z"></path><path id="Path" d="m21 31h-1c-.5522847 0-1 .4477153-1 1s.4477153 1 1 1h1c.5522847 0 1-.4477153 1-1s-.4477153-1-1-1z"></path><path id="Path" d="m28 31h-3c-.5522847 0-1 .4477153-1 1s.4477153 1 1 1h3c.5522847 0 1-.4477153 1-1s-.4477153-1-1-1z"></path><path id="Path" d="m35 31h-3c-.5522847 0-1 .4477153-1 1s.4477153 1 1 1h3c.5522847 0 1-.4477153 1-1s-.4477153-1-1-1z"></path><path id="Path" d="m21 35h-1c-.5522847 0-1 .4477153-1 1s.4477153 1 1 1h1c.5522847 0 1-.4477153 1-1s-.4477153-1-1-1z"></path><path id="Path" d="m28 35h-3c-.5522847 0-1 .4477153-1 1s.4477153 1 1 1h3c.5522847 0 1-.4477153 1-1s-.4477153-1-1-1z"></path><path id="Path" d="m34 35h-2c-.5522847 0-1 .4477153-1 1s.4477153 1 1 1h2c.5522847 0 1-.4477153 1-1s-.4477153-1-1-1z"></path><path id="Path" d="m40 35h-2c-.5522847 0-1 .4477153-1 1s.4477153 1 1 1h2c.5522847 0 1-.4477153 1-1s-.4477153-1-1-1z"></path><path id="Path" d="m7.988 22.475c-.21025079-.2888492-.55862978-.4435895-.91390596-.4059316s-.66347465.2619929-.80850002.5885c-.14502537.3265072-.10484484.7055824.10540598.9944316.24961583.3405424.51663751.6679778.8.981.23683282.2748161.60392894.3998107.95925576.3266223.35532681-.0731885.64314616-.3330793.75209831-.6791185s.02194637-.7239455-.22735407-.9875038c-.23627817-.2609928-.45890849-.5340237-.667-.818z"></path><path id="Path" d="m15.038 5c-3.0946274.01280286-6.03852961 1.33792227-8.1 3.646-2.56616427 2.879621-3.53814676 6.8439612-2.595 10.584.10645784.4504561.50813611.7689858.971.77.07811206-.000087.15595561-.0091464.232-.027.53544606-.1276134.86708571-.6639578.742-1.2-.78942358-3.0956233.00605271-6.38127 2.124-8.773 1.68336-1.89430338 4.0918621-2.98478125 6.626-3 .5522847 0 1-.44771525 1-1s-.4477153-1-1-1z"></path></g></svg>